<?xml version="1.0" encoding="utf-8"?>
<!-- Generator: Adobe Illustrator 25.4.1, SVG Export Plug-In . SVG Version: 6.00 Build 0)  -->
<svg version="1.1" id="Слой_1" xmlns="http://www.w3.org/2000/svg" xmlns:xlink="http://www.w3.org/1999/xlink" x="0px" y="0px"
	 viewBox="0 0 311.8 311.8" style="enable-background:new 0 0 311.8 311.8;" xml:space="preserve">
<g>
	<path d="M155.8,242.1c-32.8,0-65.6,0-98.5,0c-4.9,0-9.2-1-12.6-4.8c-2.6-2.9-3.8-6.4-3.8-10.2c0-40.7,0-81.3,0-122
		c0-8.9,6.2-14.9,15.2-14.9c3.6,0,7.3-0.1,10.9,0c2.1,0.1,2.7-0.7,2.6-2.7c-0.1-4.7,0.1-9.3-0.1-14c-0.1-2.7,0.7-3.9,3.7-3.9
		c10.2,0.2,20.5,0.1,30.7,0c2.6,0,3.5,0.9,3.4,3.5c-0.1,4.9,0,9.7-0.1,14.6c0,1.9,0.3,2.8,2.5,2.8c9.5-0.1,19.1-0.1,28.6,0
		c1.8,0,2.6-0.6,2.9-2.4c1-4.9,2.2-9.7,3.1-14.5c0.5-2.4,1.5-3.6,4.1-3.6c22.8,0.1,45.6,0.1,68.3,0c2.6,0,3.7,1,4.1,3.5
		c0.9,4.8,2.1,9.5,2.9,14.3c0.4,2.3,1.4,2.8,3.5,2.7c7.5-0.1,14.9-0.1,22.4,0c13,0,21.1,8.1,21.1,21.1c0,38,0,75.9,0,113.9
		c0,11.1-5.5,16.6-16.6,16.6C221.4,242.1,188.6,242.1,155.8,242.1z M155.4,238.5c2.6,0,5.2,0,7.8,0c30.4,0,60.9,0,91.3,0
		c7.5,0,11.8-4.3,11.8-11.7c0-6.1-0.1-12.2,0.1-18.3c0.1-2.4-0.8-2.9-3-2.9c-22.9,0.1-45.8,0.1-68.6,0c-1.7,0-3,0.4-4.2,1.5
		c-3.8,3.3-7.9,6-12.5,8c-20.3,8.7-39.2,6-56.5-7.6c-1.3-1-2.5-1.9-4.4-1.9c-23.1,0.1-46.2,0.1-69.3,0c-2.3,0-2.8,0.8-2.7,2.9
		c0.1,5.8,0,11.6,0,17.4c0,8.7,4,12.7,12.7,12.7C90.4,238.5,122.9,238.5,155.4,238.5z M153.9,94.6c-32.5,0-65,0-97.5,0
		c-7,0-11.2,4.2-11.3,11.1c0,6.2,0.1,12.4-0.1,18.6c-0.1,2.4,0.5,3.2,3.1,3.2c22.9-0.1,45.7-0.1,68.6,0c1.5,0,2.7-0.4,3.9-1.4
		c21.1-17.5,48.9-17.5,70,0c1.3,1.1,2.6,1.4,4.3,1.4c22.9,0,45.8,0,68.6,0c2.4,0,3.3-0.5,3.2-3.1c-0.2-4.5,0-9.1-0.1-13.6
		c-0.1-10.1-6.1-16.2-16.2-16.2C218.3,94.6,186.1,94.6,153.9,94.6z M114.6,200.7c-17-23.2-16.5-46.2,0.2-69.3
		c-0.8-0.1-1.2-0.1-1.7-0.1c-21.7,0-43.5,0-65.2-0.1c-2.5,0-2.8,0.9-2.8,3.1c0.1,21.1,0.1,42.2,0,63.3c0,2.8,0.8,3.6,3.6,3.6
		c20.9-0.1,41.8-0.1,62.7-0.1C112.4,201.1,113.5,201.4,114.6,200.7z M196.8,201.6c0.7,0.1,1,0.2,1.2,0.2c22,0,43.9,0,65.9,0.1
		c2.6,0,2.5-1.3,2.5-3.1c0-21.3-0.1-42.6,0-63.9c0-2.7-0.9-3.2-3.4-3.2c-21.1,0.1-42.2,0-63.4,0.1c-0.9,0-1.8-0.3-2.7,0.4
		C213.8,155.2,213.4,178.3,196.8,201.6z M155.9,215.9c27.2-0.1,49.4-22,49.4-49c0-26.6-22.5-49.8-48.2-49.8
		c-28.6,0.1-50.9,22-50.8,49.7C106.4,194,128.5,215.9,155.9,215.9z M182.9,90.2c11.6,0,23.2-0.1,34.8,0c2.3,0,2.8-0.5,2.2-2.8
		c-0.9-3.6-1.5-7.3-2.1-11c-0.3-2.2-1.2-2.9-3.4-2.8c-9.6,0.1-19.3,0.1-28.9,0.1c-11.4,0-22.8,0.1-34.2-0.1c-2.2,0-3.1,0.6-3.4,2.8
		c-0.6,3.7-1.3,7.3-2.2,10.9c-0.5,2.2,0,2.9,2.3,2.8C159.7,90.1,171.3,90.2,182.9,90.2z M88.8,90.2c4.1,0,8.3-0.1,12.4,0
		c1.8,0,2.7-0.4,2.6-2.4c-0.1-3.9-0.1-7.8,0-11.8c0.1-2-0.8-2.4-2.6-2.4c-8.2,0.1-16.3,0.1-24.5,0c-1.8,0-2.6,0.4-2.6,2.4
		c0.1,3.9,0.1,7.9,0,11.8c-0.1,2,0.8,2.4,2.6,2.4C80.8,90.1,84.8,90.2,88.8,90.2z"/>
	<path d="M156,127.5c21.5,0.1,39,17.8,38.9,39.3c-0.2,21.3-17.8,38.8-39.2,38.8c-21.5,0-39.1-17.8-39-39.2
		C116.7,144.9,134.4,127.4,156,127.5z M155.6,131.7c-19.4,0.1-34.8,15.6-34.7,35c0.1,19.3,15.7,34.8,35,34.7
		c19.3-0.1,34.8-15.7,34.7-35C190.6,147.1,175,131.6,155.6,131.7z"/>
	<path d="M157.2,141.7c12.2,0.6,22.8,11.1,23.4,23.1c0,0.6,0,1.2,0,1.9c-0.1,1-0.6,1.8-1.7,1.9c-1.2,0.1-2-0.5-2.2-1.7
		c-0.3-1.6-0.3-3.3-0.7-4.9c-2-8.9-9.5-15.3-18.9-16.2c-1.5-0.1-3.4,0-3.3-2.3C154,141.2,156,141.7,157.2,141.7z"/>
</g>
</svg>
