<?xml version="1.0" encoding="utf-8"?>
<!-- Generator: Adobe Illustrator 25.4.1, SVG Export Plug-In . SVG Version: 6.00 Build 0)  -->
<svg version="1.1" id="Слой_1" xmlns="http://www.w3.org/2000/svg" xmlns:xlink="http://www.w3.org/1999/xlink" x="0px" y="0px"
	 viewBox="0 0 311.8 311.8" style="enable-background:new 0 0 311.8 311.8;" xml:space="preserve">
<style type="text/css">
	.st0{fill:#FFFFFF;}
</style>
<g>
	<path d="M146.7,292.4c-8.8,0-17.5,0-26.3,0c-1.2,0-2.5-0.1-3.7-0.3c-5.6-1.2-9.3-5.5-9.6-11.1c-0.2-3.3-0.1-6.6-0.1-9.9
		c0-0.7,0.1-1.4,0.1-2c0-0.6-0.1-1.3-0.2-1.9c-0.3-1.1-1-1.9-2.2-2.2c-0.8-0.2-1.6-0.2-2.4-0.1c-2.1,0.2-4.2,0-6.3-0.6
		c-3.6-0.9-6.1-3.1-7.7-6.5c-0.9-1.8-1.2-3.8-1.6-5.7c-2-10.7-4-21.5-5.9-32.2c-0.4-2-1.2-3.8-2.5-5.3c-5.8-6.9-10.7-14.5-14.3-22.8
		c-3.1-7.1-5.3-14.5-6.4-22.2c-0.8-5.7-1.1-11.4-0.9-17.2c0.8-19.7,7.4-37.3,19.7-52.7c0.6-0.7,1.1-1.4,1.7-2.1
		c1.5-1.6,2.3-3.5,2.7-5.6c0.5-2.6,0.9-5.2,1.4-7.7c1.7-9.1,3.4-18.1,5.2-27.2c0.1-0.4,0.2-0.8,0.3-1.2c1.4-5.1,5.4-8.4,10.8-8.8
		c1.5-0.1,3.1-0.1,4.6-0.1c0.6,0,1.1,0,1.7-0.1c1.2-0.2,1.9-1,2.2-2.2c0.1-0.7,0.2-1.5,0.2-2.2c0-3.2,0-6.5,0-9.7
		c0-1.4,0.1-2.8,0.5-4.2c1.3-4.7,4.3-7.6,9.1-8.7c1.4-0.3,2.8-0.4,4.2-0.4c11.4,0,22.8,0,34.2,0c6.1,0,12.2,0,18.3,0
		c1.4,0,2.7,0.1,4.1,0.5c4.7,1.2,7.6,4.2,8.7,8.9c0.3,1.2,0.4,2.4,0.4,3.6c0.1,3.3,0,6.6,0,9.9c0,0.5,0,1,0,1.5
		c0.1,2,1.2,3.1,3.3,3.2c0.5,0,1,0,1.5,0c1.9,0,3.8,0,5.6,0.4c4.9,1.1,7.9,4.1,9.1,8.9c0.6,2.7,1.1,5.5,1.7,8.2
		c1.7,9.1,3.4,18.1,5.1,27.2c0.4,2.3,1.3,4.2,2.8,5.9c5.3,6.2,9.7,13.1,13.1,20.5c3.1,6.8,5.3,13.8,6.6,21.1
		c0.1,0.7,0.3,1.5,0.6,2.1c0.7,1.6,1.9,2.4,3.6,2.5c0.5,0,0.9,0,1.4,0c2.3,0,4.6-0.1,6.8,0c0.8,0,1.7,0.2,2.5,0.4
		c2.7,0.8,4.3,2.6,5,5.4c0.2,0.8,0.3,1.7,0.3,2.5c0,2.5,0,5,0,7.5c0,0.6-0.1,1.2-0.2,1.9c-0.4,3.1-2.7,6.2-7.2,6.5
		c-1.6,0.1-3.3,0.1-5,0.1c-1.1,0-2.3,0-3.4,0c-2.5,0-3.5,0.8-4.1,3.2c-0.5,2.3-1,4.7-1.6,7c-3.4,13.5-9.7,25.6-18.7,36.2
		c-1.4,1.6-2.2,3.4-2.6,5.5c-1.5,8.2-3.1,16.4-4.6,24.7c-0.5,2.7-1,5.4-1.5,8.1c-0.3,1.3-0.6,2.6-1,3.8c-1.7,5.1-5.4,7.7-10.6,8.2
		c-1.4,0.1-2.8,0.1-4.3,0.1c-0.7,0-1.4,0-2,0.2c-1.1,0.2-1.8,0.8-2,1.9c-0.1,0.7-0.2,1.4-0.2,2c0,3,0,5.9,0,8.9
		c0,1.6-0.1,3.2-0.4,4.8c-1.2,5.8-5.7,9.7-11.6,9.9c-0.8,0-1.6,0-2.4,0C163.6,292.4,155.1,292.4,146.7,292.4
		C146.7,292.4,146.7,292.4,146.7,292.4z M147.8,240.4c5.6,0,12.4-0.8,19-2.4c34.7-8.6,61.1-38.6,63.9-75.9
		c0.6-7.6,0.2-15.3-1.4-22.8c-3.6-17.6-11.8-32.7-24.9-45c-17.8-16.6-38.9-24.1-63.2-22.8c-5.5,0.3-10.9,1.2-16.2,2.6
		c-35.4,9.4-61.9,41.2-62.7,80c-0.2,7.6,0.7,15.1,2.6,22.5C73.9,212.7,106.5,240.4,147.8,240.4z M146.6,25.2
		C146.6,25.3,146.6,25.3,146.6,25.2c-8.6,0-17.2,0-25.8,0c-1,0-2.1,0.1-3.1,0.2c-2.4,0.5-4,1.9-4.6,4.3c-0.2,0.9-0.3,1.9-0.3,2.9
		c0,11.4,0,22.9,0,34.3c0,0.5,0,1,0.1,1.5c0.2,1.8,1.6,2.7,3.3,2.3c0.7-0.2,1.4-0.4,2.1-0.6c8.6-2.9,17.4-4.6,26.4-4.7
		c5.8-0.1,11.6,0.3,17.3,1.4c4.4,0.8,8.8,1.9,13,3.4c0.8,0.3,1.5,0.5,2.3,0.6c1.4,0.2,2.5-0.4,2.9-1.8c0.2-0.6,0.2-1.3,0.2-2
		c0-2.9,0-5.8,0-8.7c0-8.3,0-16.6,0-24.9c0-1.1-0.1-2.2-0.3-3.2c-0.5-2.6-2.2-4.2-4.8-4.7c-1.1-0.2-2.1-0.2-3.2-0.2
		C163.6,25.2,155.1,25.2,146.6,25.2z M146.6,286.5C146.6,286.5,146.6,286.5,146.6,286.5c8.6,0,17.2,0,25.8,0c1.1,0,2.2-0.1,3.2-0.3
		c2.4-0.5,4.1-2,4.6-4.5c0.2-1,0.3-2,0.3-3c0-11.2,0-22.4,0-33.7c0-0.4,0-0.8,0-1.2c0-0.3-0.1-0.7-0.2-1c-0.4-1.4-1.5-2.1-3-1.9
		c-0.5,0.1-1,0.2-1.5,0.4c-7,2.4-14.1,4-21.5,4.6c-6.8,0.6-13.7,0.4-20.4-0.6c-5.5-0.8-10.9-2.2-16.2-4c-0.5-0.2-1.1-0.4-1.6-0.5
		c-1.7-0.3-2.9,0.5-3.2,2.2c-0.1,0.6-0.1,1.2-0.1,1.9c0,5.7,0,11.4,0,17.1c0,5.5,0,11,0,16.6c0,1,0.1,2.1,0.3,3
		c0.5,2.6,2.2,4.1,4.8,4.5c1.1,0.2,2.3,0.3,3.4,0.3C129.7,286.5,138.2,286.5,146.6,286.5z M87.7,86.9c0.7,0,1.1-0.5,1.5-0.8
		c5-3.8,10.1-7.4,15.7-10.3c1.3-0.7,1.9-1.7,2-3.1c0-0.3,0-0.7,0-1c0-4.2,0-8.3,0-12.5c0-1-0.1-1.9-0.2-2.9c-0.2-1.9-1.2-3-3.1-3.3
		c-2-0.3-4-0.3-5.9,0.1c-2,0.5-3.5,1.7-4.2,3.6c-0.3,0.8-0.5,1.7-0.7,2.6c-0.3,1.6-0.6,3.1-0.9,4.7c-1.3,7-2.6,14.1-3.9,21.1
		C87.8,85.7,87.8,86.3,87.7,86.9z M89.6,226.1c-0.8,1.9-1.2,3.6-0.8,5.5c1.3,6.4,2.4,12.9,3.6,19.3c0.3,1.3,0.6,2.7,1,4
		c0.7,2.1,2.2,3.4,4.4,3.8c2.1,0.4,4.3,0.3,6.5,0.3c1.3,0,2.2-0.9,2.5-2.2c0.1-0.7,0.2-1.5,0.2-2.2c0-4.7,0-9.3,0-14
		c0-0.4,0-0.8,0-1.2c0-1.6-0.7-2.7-2.1-3.4c-4.8-2.5-9.3-5.5-13.6-8.8C90.7,226.8,90.2,226.5,89.6,226.1z M205.1,226.8
		c-1.8,0.1-3.3,0.6-4.5,1.5c-3.7,2.7-7.6,5.2-11.7,7.4c-0.3,0.2-0.6,0.3-0.9,0.5c-0.8,0.5-1.3,1.3-1.5,2.2c-0.1,0.6-0.2,1.1-0.2,1.7
		c0,4.4,0,8.9,0,13.3c0,0.8,0.1,1.6,0.2,2.4c0.4,2,1.4,3,3.4,3.2c1.5,0.1,3.1,0.1,4.6,0c2.7-0.3,4.6-1.8,5.5-4.4
		c0.1-0.4,0.2-0.9,0.3-1.3c0.4-2,0.8-3.9,1.1-5.9c1.2-6.4,2.4-12.7,3.5-19.1C205.2,227.7,205.1,227.3,205.1,226.8z M203.2,85.3
		c0.4-0.6,0.7-1.1,1-1.6c0.5-0.9,0.6-1.8,0.4-2.8c-1.3-6.6-2.5-13.2-3.7-19.8c-0.3-1.4-0.6-2.9-1.1-4.3c-0.7-2.2-2.3-3.4-4.6-3.8
		c-2-0.3-4-0.3-6-0.2c-1.5,0-2.4,0.9-2.8,2.3c-0.1,0.5-0.2,1.1-0.2,1.7c0,2.2,0,4.4,0,6.7c0,2.9,0,5.8,0,8.7c0,1.7,0.7,2.9,2.2,3.7
		c4.6,2.3,8.8,5.2,12.9,8.2C202,84.5,202.5,84.9,203.2,85.3z M236.9,155.9C236.9,155.9,236.9,155.9,236.9,155.9c0.1,1,0,1.9,0.1,2.9
		c0.2,2,1.2,2.9,3.2,3.2c2,0.3,4.1,0.3,6.1,0c0.2,0,0.3,0,0.5-0.1c1.4-0.3,2.2-1.2,2.4-2.5c0.4-2.3,0.3-4.5,0-6.8
		c-0.2-1.4-1.1-2.4-2.6-2.6c-2.3-0.4-4.7-0.4-7,0c-1.3,0.2-2.2,1-2.5,2.3c-0.1,0.5-0.2,1-0.2,1.5
		C236.9,154.4,236.9,155.1,236.9,155.9z"/>
	<path class="st0" d="M236.9,155.9c0-0.7,0-1.5,0-2.2c0-0.5,0.1-1,0.2-1.5c0.3-1.3,1.2-2.1,2.5-2.3c2.3-0.4,4.7-0.4,7,0
		c1.4,0.2,2.3,1.2,2.6,2.6c0.4,2.3,0.4,4.5,0,6.8c-0.2,1.4-1.1,2.2-2.4,2.5c-0.2,0-0.3,0.1-0.5,0.1c-2,0.3-4.1,0.3-6.1,0
		c-2-0.3-2.9-1.2-3.2-3.2C236.9,157.8,237,156.8,236.9,155.9C236.9,155.9,236.9,155.9,236.9,155.9z"/>
	<path d="M218.3,155.9c0,30.3-18.7,57.1-46.9,67.6c-5.6,2.1-11.3,3.4-17.2,4c-28.9,3-54.9-11.5-68.8-34c-5.2-8.3-8.5-17.4-9.9-27.1
		c-1-6.5-1-13-0.2-19.6c3.5-28.2,24-52.5,52.1-60.4c7.7-2.1,15.5-3,23.5-2.5c32.8,2.1,59.1,25.7,65.8,56.4
		C217.8,145.6,218.3,150.7,218.3,155.9z M205.5,158.8C205.5,158.8,205.5,158.8,205.5,158.8c-1.1-0.1-2.3,0-3.4-0.1
		c-0.4,0-0.8-0.1-1.2-0.2c-1.2-0.3-1.9-1.2-2-2.5c-0.1-1.3,0.5-2.4,1.8-2.8c0.6-0.2,1.2-0.3,1.8-0.3c1.5,0,3,0,4.4,0
		c0.8,0,1.6-0.1,2.4-0.3c1.8-0.4,2.7-1.4,2.7-3.2c0-0.9,0-1.8-0.2-2.7c-0.3-1.7-0.6-3.5-0.9-5.2c-2.2-10-6.5-18.9-12.8-26.9
		c-0.3-0.4-0.7-0.9-1.2-1.2c-1.2-0.9-2.4-0.9-3.6-0.1c-0.5,0.4-0.9,0.8-1.4,1.3c-1.2,1.2-2.5,2.5-3.7,3.7c-0.4,0.4-0.9,0.8-1.4,1
		c-1.2,0.6-2.5,0.4-3.4-0.6c-1-1-1.1-2.2-0.3-3.4c0.3-0.4,0.6-0.8,1-1.2c1.2-1.3,2.5-2.5,3.7-3.8c0.4-0.4,0.7-0.7,1.1-1.1
		c1.2-1.4,1.1-2.8-0.2-4.1c-0.3-0.3-0.7-0.6-1-0.9c-9.4-7.5-20-12.1-31.9-13.8c-1-0.1-2-0.3-3.1-0.3c-1.8-0.1-2.9,0.9-3.2,2.7
		c-0.1,0.6,0,1.2-0.1,1.9c0,1.9,0,3.8-0.1,5.6c0,0.4-0.1,0.9-0.2,1.3c-0.4,1.2-1.4,1.9-2.6,1.9c-1.3,0-2.3-0.7-2.7-2
		c-0.2-0.6-0.3-1.2-0.3-1.8c0-1.7,0-3.4,0-5.1c0-0.5,0-1,0-1.5c-0.1-1.8-1.3-2.9-3.1-2.9c-0.3,0-0.7,0-1,0.1
		c-1.1,0.2-2.3,0.3-3.4,0.5c-11.5,1.9-21.7,6.5-30.8,13.8c-0.4,0.3-0.8,0.7-1.1,1c-0.9,1.1-0.9,2.3-0.1,3.5c0.3,0.5,0.8,0.9,1.2,1.3
		c1.3,1.3,2.7,2.7,4,4c0.4,0.4,0.8,0.9,1,1.4c0.6,1.2,0.4,2.4-0.5,3.3c-0.9,0.9-2.1,1.2-3.3,0.5c-0.5-0.3-1-0.7-1.5-1.1
		c-1.3-1.3-2.7-2.7-4-4c-0.4-0.4-0.7-0.7-1.1-1c-1.2-0.9-2.5-0.8-3.6,0.2c-0.4,0.4-0.8,0.8-1.1,1.3c-7.9,9.9-12.5,21.2-14,33.8
		c-0.1,0.6-0.1,1.1-0.1,1.7c0.1,1.5,1.1,2.5,2.6,2.8c0.5,0.1,1,0.1,1.5,0.1c1.9,0,3.8,0,5.6,0c0.6,0,1.3,0.1,1.8,0.3
		c1.1,0.4,1.7,1.3,1.8,2.5c0,1.2-0.5,2.1-1.6,2.6c-0.6,0.3-1.3,0.4-2,0.4c-1.9,0.1-3.9,0-5.8,0c-0.7,0-1.4,0.1-2,0.2
		c-1.3,0.4-2,1.3-2,2.7c0,0.6,0,1.1,0.1,1.7c0.4,2.4,0.8,4.8,1.3,7.2c2.2,9.9,6.5,18.8,12.9,26.7c0.2,0.3,0.4,0.5,0.7,0.8
		c1.3,1.3,2.8,1.4,4.2,0.2c0.3-0.3,0.6-0.6,1-1c1.2-1.3,2.5-2.5,3.7-3.7c0.4-0.4,0.9-0.8,1.5-1.1c1.1-0.6,2.2-0.5,3.1,0.4
		c1,0.9,1.3,2.1,0.7,3.3c-0.3,0.6-0.7,1.1-1.1,1.5c-1.3,1.4-2.6,2.7-4,4c-0.4,0.4-0.7,0.7-1.1,1.1c-0.9,1.2-0.9,2.6,0.2,3.7
		c0.3,0.3,0.6,0.6,0.9,0.8c0.6,0.5,1.3,1,1.9,1.5c8.9,6.7,18.8,10.8,29.8,12.5c1.2,0.2,2.4,0.4,3.6,0.4c2,0.1,3.2-1.1,3.3-3.1
		c0-0.7,0-1.4,0-2c0.1-2,0.1-4,0.2-6c0.1-1.4,1.3-2.3,2.7-2.4c1.4,0,2.5,0.9,2.8,2.3c0.1,0.5,0.1,1,0.1,1.5c0,1.1,0,2.3,0.1,3.4
		c0,1,0.1,2.1,0.2,3.1c0.3,1.8,1.4,2.8,3.2,3c0.5,0.1,1,0,1.5,0c1.6-0.2,3.3-0.5,4.9-0.8c10.6-2,20-6.5,28.4-13.1
		c0.4-0.3,0.7-0.6,1-0.9c1.2-1.3,1.2-2.8,0.1-4.2c-0.3-0.4-0.7-0.7-1.1-1.1c-1.2-1.2-2.4-2.4-3.6-3.6c-0.3-0.3-0.5-0.6-0.8-0.9
		c-1-1.4-1-2.7,0.1-3.9c1.1-1.1,2.5-1.2,3.8-0.2c0.4,0.3,0.7,0.6,1,0.9c1.2,1.2,2.4,2.4,3.6,3.6c0.4,0.4,0.7,0.8,1.1,1.1
		c1.3,1.1,2.7,1,4-0.1c0.4-0.3,0.7-0.7,1-1.2c1.3-1.8,2.7-3.7,3.9-5.6c5.2-8.1,8.3-16.9,9.8-26.4c0.1-0.8,0.3-1.7,0.3-2.5
		c0.2-2.3-1-3.7-3.3-3.8c-0.3,0-0.7,0-1,0C207.1,158.8,206.3,158.8,205.5,158.8z"/>
	<path d="M149.6,130.1c0,3.5,0,7.1,0,10.6c0,0.5,0.1,1,0.1,1.5c0.2,1,0.7,1.8,1.5,2.4c0.3,0.2,0.6,0.4,0.9,0.5
		c2.4,1.2,4.2,2.9,5.3,5.3c0.8,1.7,2.2,2.6,4.1,2.5c0.5,0,1,0,1.5,0c3.3,0,6.6,0,9.9,0c0.9,0,1.7,0.1,2.5,0.4
		c1.2,0.5,1.7,1.5,1.7,2.7c-0.1,1-0.6,1.7-1.4,2.2c-0.8,0.4-1.6,0.5-2.5,0.5c-3.1,0-6.3,0-9.4,0c-0.7,0-1.4,0-2,0
		c-1.9,0-3.4,0.8-4.4,2.5c-0.4,0.7-0.9,1.5-1.4,2.1c-3.1,3.8-7.1,5.3-11.8,4.3c-4.8-1-8-4.1-9.3-8.8c-1.4-5.1,0.6-10.2,5.1-13.1
		c0.6-0.4,1.2-0.7,1.8-1.1c1.2-0.8,1.9-1.9,2-3.4c0-0.6,0-1.3,0-1.9c0-6.3,0-12.6,0-18.9c0-0.8,0-1.6,0.2-2.4c0.3-1.3,1.7-2.2,3-2
		c1.4,0.2,2.4,1.2,2.5,2.6c0,0.6,0,1.3,0,1.9C149.5,123.8,149.5,127,149.6,130.1C149.5,130.1,149.5,130.1,149.6,130.1z M140.5,155.8
		c0,3.5,2.5,6.2,6,6.2c3.5,0.1,6.2-2.5,6.2-6.1c0-3.5-2.5-6.2-6.1-6.2C143.2,149.7,140.6,152.3,140.5,155.8z"/>
	<path class="st0" d="M140.5,155.8c0-3.5,2.7-6.1,6.2-6.1c3.5,0,6.1,2.7,6.1,6.2c0,3.5-2.8,6.1-6.2,6.1
		C143,162,140.5,159.3,140.5,155.8z"/>
</g>
</svg>
