<?xml version="1.0" encoding="utf-8"?>
<!-- Generator: Adobe Illustrator 25.4.1, SVG Export Plug-In . SVG Version: 6.00 Build 0)  -->
<svg version="1.1" id="Layer_1" xmlns="http://www.w3.org/2000/svg" xmlns:xlink="http://www.w3.org/1999/xlink" x="0px" y="0px"
	 viewBox="0 0 343.9 33.1" style="enable-background:new 0 0 343.9 33.1;" xml:space="preserve">
<g>
	<g>
		<path d="M0.5,0.6h12.7c10.1,0,17.2,6.4,17.2,16.2c0,9.7-7,16.1-17.2,16.1H0.5V0.6z M13.3,26.8c6.4,0,10.1-4.6,10.1-10.1
			c0-5.7-3.5-10.1-10.1-10.1H7.4v20.2H13.3z"/>
		<path d="M47.2,21.3h-5v11.6h-6.9V0.6h15.1C57.2,0.6,61.3,5,61.3,11c0,5.7-3.6,8.8-7.1,9.6l7.3,12.3h-7.9L47.2,21.3z M49.4,6.5
			h-7.2v8.9h7.2c2.8,0,4.8-1.7,4.8-4.5C54.3,8.2,52.2,6.5,49.4,6.5z"/>
		<path d="M66.5,0.6h22.9v5.9h-16v7H89v5.9H73.3v7.5h16v6H66.5V0.6z"/>
		<path d="M115.3,27.3h-14.4l-2,5.6h-7.6l12.5-32.3h8.6l12.5,32.3h-7.5L115.3,27.3z M102.7,21.4h10.7l-5.3-14.8L102.7,21.4z"/>
		<path d="M155.9,9.6l-9.1,23.3h-3l-9.1-23.3v23.3h-6.9V0.6h9.6l7.8,20.2l7.8-20.2h9.7v32.3h-6.9V9.6z"/>
		<path d="M200.7,10.7l-5.6,22.2h-7.3l-9.3-32.3h7.7l5.7,23.4L198,0.6h5.4l6.1,23.4l5.6-23.4h7.8l-9.2,32.3h-7.3L200.7,10.7z"/>
		<path d="M244.6,27.3h-14.4l-2,5.6h-7.6l12.5-32.3h8.6l12.5,32.3h-7.5L244.6,27.3z M232,21.4h10.7l-5.3-14.8L232,21.4z"/>
		<path d="M261.5,6.6h-9.4V0.6h25.8v6.1h-9.4v26.3h-6.9V6.6z"/>
		<path d="M279.5,16.8c0-9.9,7.5-16.7,17-16.7c7.4,0,11.5,3.9,13.8,7.9l-5.9,2.9c-1.4-2.6-4.3-4.7-7.8-4.7c-5.6,0-9.9,4.5-9.9,10.6
			c0,6.1,4.3,10.6,9.9,10.6c3.6,0,6.5-2,7.8-4.7l5.9,2.9c-2.3,4-6.4,7.9-13.8,7.9C287,33.5,279.5,26.7,279.5,16.8z"/>
		<path d="M336.5,19.3h-15.3v13.6h-6.9V0.6h6.9v12.7h15.3V0.6h6.9v32.3h-6.9V19.3z"/>
	</g>
</g>
</svg>
