<svg xmlns="http://www.w3.org/2000/svg" aria-hidden="true" style="position:absolute;width:0;height:0;overflow:hidden">
<defs>
<symbol id="icon-pin" viewBox="0 0 32 32">
<path d="M16 28.8c-2.915 0-8-11.186-8-17.6 0-4.411 3.589-8 8-8s8 3.589 8 8c0 6.414-5.085 17.6-8 17.6zM16 0C9.814 0 4.8 5.014 4.8 11.2S9.814 32 16 32c6.186 0 11.2-14.614 11.2-20.8S22.186 0 16 0zm0 13.816c-.882 0-1.6-.717-1.6-1.6 0-.882.718-1.6 1.6-1.6s1.6.718 1.6 1.6c0 .883-.718 1.6-1.6 1.6zm0-6.4a4.8 4.8 0 1 0 .001 9.601A4.8 4.8 0 0 0 16 7.416z"/>
</symbol>
<symbol id="icon-cart" viewBox="0 0 32 32">
<path d="M28.784 27.734 26.943 6.981a.789.789 0 0 0-.795-.722h-3.882C22.259 2.808 19.451-.001 16-.001s-6.26 2.809-6.266 6.26H5.852a.798.798 0 0 0-.795.722L3.216 27.734v.073C3.216 30.119 5.342 32 7.952 32h16.096c2.61 0 4.736-1.881 4.736-4.193v-.073zM16 1.59a4.682 4.682 0 0 1 4.676 4.67h-9.353a4.683 4.683 0 0 1 4.676-4.67zm8.048 28.814H7.952c-1.722 0-3.126-1.146-3.146-2.57L6.581 7.85h3.153v2.789c0 .437.358.795.795.795s.795-.358.795-.795V7.85h9.353v2.789c0 .437.358.795.795.795s.795-.358.795-.795V7.85h3.153l1.775 19.991c-.02 1.418-1.424 2.563-3.146 2.563z"/>
</symbol>
<symbol id="icon-search" viewBox="0 0 32 32">
<path d="M13.867 3.2C7.989 3.2 3.2 7.988 3.2 13.867s4.788 10.667 10.667 10.667c2.556 0 4.904-.908 6.744-2.415l6.369 6.369a1.067 1.067 0 1 0 1.509-1.508l-6.369-6.369a10.61 10.61 0 0 0 2.415-6.744c0-5.878-4.788-10.667-10.667-10.667zm0 2.133c4.725 0 8.533 3.808 8.533 8.533s-3.808 8.533-8.533 8.533-8.533-3.808-8.533-8.533 3.808-8.533 8.533-8.533z"/>
</symbol>
</defs>
</svg>