<svg xmlns="http://www.w3.org/2000/svg" aria-hidden="true" style="position:absolute;width:0;height:0;overflow:hidden">
<defs>
<symbol id="icon-pin" viewBox="0 0 32 32">
<path d="M16 28.8c-2.915 0-8-11.186-8-17.6 0-4.411 3.589-8 8-8s8 3.589 8 8c0 6.414-5.085 17.6-8 17.6zM16 0C9.814 0 4.8 5.014 4.8 11.2S9.814 32 16 32c6.186 0 11.2-14.614 11.2-20.8S22.186 0 16 0zm0 13.816c-.882 0-1.6-.717-1.6-1.6 0-.882.718-1.6 1.6-1.6s1.6.718 1.6 1.6c0 .883-.718 1.6-1.6 1.6zm0-6.4a4.8 4.8 0 1 0 .001 9.601A4.8 4.8 0 0 0 16 7.416z"/>
</symbol>
<symbol id="icon-cart" viewBox="0 0 32 32">
<path d="M28.784 27.734 26.943 6.981a.789.789 0 0 0-.795-.722h-3.882C22.259 2.808 19.451-.001 16-.001s-6.26 2.809-6.266 6.26H5.852a.798.798 0 0 0-.795.722L3.216 27.734v.073C3.216 30.119 5.342 32 7.952 32h16.096c2.61 0 4.736-1.881 4.736-4.193v-.073zM16 1.59a4.682 4.682 0 0 1 4.676 4.67h-9.353a4.683 4.683 0 0 1 4.676-4.67zm8.048 28.814H7.952c-1.722 0-3.126-1.146-3.146-2.57L6.581 7.85h3.153v2.789c0 .437.358.795.795.795s.795-.358.795-.795V7.85h9.353v2.789c0 .437.358.795.795.795s.795-.358.795-.795V7.85h3.153l1.775 19.991c-.02 1.418-1.424 2.563-3.146 2.563z"/>
</symbol>
<symbol id="icon-search" viewBox="0 0 32 32">
<path d="M13.867 3.2C7.989 3.2 3.2 7.988 3.2 13.867s4.788 10.667 10.667 10.667c2.556 0 4.904-.908 6.744-2.415l6.369 6.369a1.067 1.067 0 1 0 1.509-1.508l-6.369-6.369a10.61 10.61 0 0 0 2.415-6.744c0-5.878-4.788-10.667-10.667-10.667zm0 2.133c4.725 0 8.533 3.808 8.533 8.533s-3.808 8.533-8.533 8.533-8.533-3.808-8.533-8.533 3.808-8.533 8.533-8.533z"/>
</symbol>
<symbol id="icon-logo" viewBox="0 0 32 32">
  <path d="M5.035 14.958h0.815c0.648 0 1.098 0.412 1.098 1.036s-0.45 1.032-1.098 1.032h-0.815v-2.068zM5.85 16.639c0.41 0 0.648-0.294 0.648-0.645 0-0.366-0.223-0.648-0.648-0.648h-0.375v1.293h0.375z"/>
  <path d="M8.024 16.285h-0.323v0.741h-0.44v-2.068h0.968c0.431 0 0.694 0.282 0.694 0.667 0 0.366-0.23 0.561-0.452 0.614l0.465 0.788h-0.506l-0.406-0.741zM8.163 15.337h-0.462v0.57h0.462c0.177 0 0.31-0.111 0.31-0.285s-0.133-0.285-0.31-0.285z"/>
  <path d="M9.254 14.958h1.464v0.378h-1.023v0.449h1.002v0.378h-1.002v0.481h1.023v0.381h-1.464v-2.068z"/>
  <path d="M12.38 16.67h-0.924l-0.13 0.356h-0.484l0.8-2.068h0.552l0.797 2.068h-0.481l-0.13-0.356zM11.573 16.289h0.685l-0.341-0.949-0.344 0.949z"/>
  <path d="M14.98 15.538l-0.583 1.489h-0.192l-0.583-1.489v1.489h-0.44v-2.068h0.617l0.502 1.29 0.502-1.29h0.62v2.068h-0.444v-1.489z"/>
  <path d="M17.846 15.606l-0.36 1.42h-0.468l-0.592-2.068h0.493l0.363 1.494 0.394-1.494h0.344l0.39 1.494 0.36-1.494h0.496l-0.589 2.068h-0.468l-0.362-1.42z"/>
  <path d="M20.655 16.67h-0.924l-0.13 0.356h-0.484l0.8-2.068h0.552l0.797 2.068h-0.481l-0.13-0.356zM19.848 16.289h0.685l-0.341-0.949-0.344 0.949z"/>
  <path d="M21.736 15.346h-0.605v-0.388h1.649v0.388h-0.602v1.681h-0.444v-1.681z"/>
  <path d="M22.89 15.994c0-0.636 0.481-1.069 1.085-1.069 0.471 0 0.735 0.248 0.881 0.506l-0.378 0.186c-0.087-0.168-0.273-0.301-0.502-0.301-0.36 0-0.632 0.288-0.632 0.679s0.273 0.679 0.632 0.679c0.23 0 0.415-0.13 0.502-0.301l0.378 0.183c-0.149 0.257-0.409 0.509-0.881 0.509-0.605-0.001-1.085-0.435-1.085-1.071z"/>
  <path d="M26.536 16.158h-0.977v0.868h-0.44v-2.068h0.44v0.812h0.977v-0.812h0.444v2.068h-0.444v-0.868z"/>
</symbol>
</defs>
</svg>