<svg xmlns="http://www.w3.org/2000/svg" aria-hidden="true" style="position:absolute;width:0;height:0;overflow:hidden">
<defs>
<symbol id="icon-pin" viewBox="0 0 32 32">
<path d="M16 28.8c-2.915 0-8-11.186-8-17.6 0-4.411 3.589-8 8-8s8 3.589 8 8c0 6.414-5.085 17.6-8 17.6zM16 0C9.814 0 4.8 5.014 4.8 11.2S9.814 32 16 32c6.186 0 11.2-14.614 11.2-20.8S22.186 0 16 0zm0 13.816c-.882 0-1.6-.717-1.6-1.6 0-.882.718-1.6 1.6-1.6s1.6.718 1.6 1.6c0 .883-.718 1.6-1.6 1.6zm0-6.4a4.8 4.8 0 1 0 .001 9.601A4.8 4.8 0 0 0 16 7.416z"/>
</symbol>
<symbol id="icon-cart" viewBox="0 0 32 32">
<path d="M28.784 27.734 26.943 6.981a.789.789 0 0 0-.795-.722h-3.882C22.259 2.808 19.451-.001 16-.001s-6.26 2.809-6.266 6.26H5.852a.798.798 0 0 0-.795.722L3.216 27.734v.073C3.216 30.119 5.342 32 7.952 32h16.096c2.61 0 4.736-1.881 4.736-4.193v-.073zM16 1.59a4.682 4.682 0 0 1 4.676 4.67h-9.353a4.683 4.683 0 0 1 4.676-4.67zm8.048 28.814H7.952c-1.722 0-3.126-1.146-3.146-2.57L6.581 7.85h3.153v2.789c0 .437.358.795.795.795s.795-.358.795-.795V7.85h9.353v2.789c0 .437.358.795.795.795s.795-.358.795-.795V7.85h3.153l1.775 19.991c-.02 1.418-1.424 2.563-3.146 2.563z"/>
</symbol>
<symbol id="icon-search" viewBox="0 0 32 32">
<path d="M13.867 3.2C7.989 3.2 3.2 7.988 3.2 13.867s4.788 10.667 10.667 10.667c2.556 0 4.904-.908 6.744-2.415l6.369 6.369a1.067 1.067 0 1 0 1.509-1.508l-6.369-6.369a10.61 10.61 0 0 0 2.415-6.744c0-5.878-4.788-10.667-10.667-10.667zm0 2.133c4.725 0 8.533 3.808 8.533 8.533s-3.808 8.533-8.533 8.533-8.533-3.808-8.533-8.533 3.808-8.533 8.533-8.533z"/>
</symbol>
<symbol id="icon-logo" viewBox="0 0 32 32">
<path d="M0 0.515h12.193c9.693 0 16.425 6.165 16.425 15.491s-6.732 15.438-16.425 15.438h-12.193zM12.193 25.646c0.134 0.007 0.292 0.011 0.45 0.011 5.11 0 9.252-4.142 9.252-9.252 0-0.14-0.003-0.28-0.009-0.419l0.001 0.020c0-5.503-3.329-9.704-9.693-9.704h-5.608v19.345z"></path>
<path d="M44.708 20.364h-4.799v11.080h-6.616v-30.929h14.472c6.448 0 10.397 4.201 10.397 9.967 0 5.472-3.434 8.402-6.774 9.179l6.952 11.783h-7.562zM46.808 6.165h-6.9v8.538h6.91c2.615 0 4.642-1.67 4.642-4.264s-2.027-4.274-4.663-4.274z"></path>
<path d="M63.118 0.515h21.886v5.65h-15.302v6.732h14.976v5.65h-14.976v7.194h15.302v5.703h-21.886z"></path>
<path d="M109.863 26.108h-13.821l-1.943 5.335h-7.236l11.962-30.929h8.297l11.92 30.929h-7.194zM97.806 20.406h10.25l-5.136-14.188z"></path>
<path d="M148.773 9.179l-8.717 22.265h-2.878l-8.717-22.265v22.265h-6.637v-30.929h9.231l7.572 19.292 7.499-19.292h9.305v30.929h-6.627z"></path>
<path d="M191.622 10.208l-5.377 21.235h-7.005l-8.864-30.929h7.351l5.419 22.349 5.892-22.349h5.146l5.85 22.349 5.409-22.349h7.425l-8.811 30.929h-7.005z"></path>
<path d="M233.641 26.108h-13.821l-1.953 5.335h-7.236l12.014-30.929h8.255l11.92 30.929h-7.194zM221.595 20.406h10.25l-5.115-14.188z"></path>
<path d="M249.825 6.301h-9.042v-5.787h24.669v5.787h-9v25.142h-6.627z"></path>
<path d="M267.069 16.005c0-9.515 7.194-16.005 16.236-16.005 0.173-0.008 0.376-0.012 0.58-0.012 5.427 0 10.146 3.034 12.553 7.498l0.037 0.076-5.65 2.783c-1.453-2.701-4.26-4.505-7.488-4.505-0.011 0-0.022 0-0.033 0h0.002c-5.377 0-9.452 4.316-9.452 10.166s4.085 10.156 9.452 10.156c0.022 0 0.049 0 0.076 0 3.216 0 6.010-1.807 7.422-4.46l0.022-0.045 5.65 2.741c-2.465 4.564-7.213 7.612-12.674 7.612-0.174 0-0.348-0.003-0.521-0.009l0.025 0.001c-9.042 0-16.236-6.49-16.236-15.995z"></path>
<path d="M321.617 18.463h-14.619v12.981h-6.585v-30.929h6.585v12.151h14.619v-12.151h6.627v30.929h-6.627z"></path>
</symbol>
</defs>
</svg>