<?xml version="1.0" encoding="utf-8"?>
<!-- Generator: Adobe Illustrator 25.4.1, SVG Export Plug-In . SVG Version: 6.00 Build 0)  -->
<svg version="1.1" id="Слой_1" xmlns="http://www.w3.org/2000/svg" xmlns:xlink="http://www.w3.org/1999/xlink" x="0px" y="0px"
	 viewBox="0 0 311.8 311.8" style="enable-background:new 0 0 311.8 311.8;" xml:space="preserve">
<style type="text/css">
	.st0{fill:#FFFFFF;}
</style>
<g>
	<path d="M242.9,182.8c0.1,0.3,0.2,0.6,0.3,0.9c0.5,3.1,1,6.1,1.5,9.2c0.6,4,1.2,8,1.9,12c0.3,2.3,1.4,4.1,3.2,5.5
		c1.2,1,2.4,2,3.4,3.1c4.6,5,7,10.9,7.1,17.7c0.1,7.3-2.2,13.7-6.9,19.3c-1.1,1.3-2.3,2.4-3.6,3.4c-1.9,1.4-2.9,3.3-3.2,5.6
		c-0.8,5.6-1.8,11.2-2.6,16.7c-0.2,1-0.3,1.9-0.4,2.9c0,0.2,0,0.4-0.1,0.6c-0.3,1.6-0.5,1.8-2.1,1.9c-0.5,0-1,0-1.6,0
		c-61.8,0-123.5,0-185.3,0c-0.8,0-1.7,0.1-2.5-0.3c-0.1-0.2-0.2-0.4-0.2-0.7c0-0.4,0-0.8,0-1.2c0-21.2,0-42.5,0.1-63.7
		c0-4.2,0.4-8.3,1.3-12.3c2.3-10.1,7.7-18.2,15.8-24.6c2.4-1.9,5-3.5,7.6-5.1c11.6-6.6,23.3-13.1,34.9-19.7c0.6-0.4,1.3-0.7,1.9-1.1
		c0.5-0.3,0.9-0.7,1.3-1.1c0.7-0.8,1-1.8,0.5-2.9c-0.4-0.7-0.8-1.4-1.3-2.1c-2.7-3.4-4.9-7.2-6.6-11.2c-0.6-1.4-1.1-2.8-1.6-4.2
		c-0.7-2.2-2.1-3.6-4.1-4.6c-3.2-1.5-6.4-3-9.5-4.5c-0.7-0.3-1.3-0.7-1.9-1.1c-2.4-1.6-3.9-3.9-4.4-6.7c-0.6-3.3-0.6-6.6,0-9.9
		c0.7-3.6,2.7-6.4,6-8c1-0.5,2.1-0.8,3.2-1.1c0.8-0.3,1.7-0.4,2.6-0.7c0.5-0.1,1-0.3,1.5-0.5c1.9-0.7,2.9-2.1,3.1-4.1
		c0.1-0.7,0.1-1.3,0.1-2c0.1-6.7,0.2-13.4,0.2-20c0-4.1-0.1-8.2-0.3-12.3c-0.4-7.1,2.2-13,7.1-17.9c3.9-3.9,8.5-6.5,13.8-7.7
		c3-0.7,6.1-0.7,9.1-0.3c3.1,0.3,6.1,1.3,8.9,2.6c3.9,1.9,8,2.6,12.4,2.2c2.9-0.3,5.6-1.1,8.2-2.3c1.8-0.8,3.6-1.5,5.5-2
		c6.1-1.5,12-0.9,17.7,1.7c4.5,2.1,8.3,5,11.7,8.6c2.4,2.5,3.6,5.7,4,9.1c0.2,1.5,0.3,3,0.3,4.5c0,11.5,0,23,0,34.5
		c0,0.7,0,1.4,0.1,2c0.2,1.9,1.2,3.2,3,3.8c0.3,0.1,0.7,0.2,1,0.3c2.1,0.7,4.2,1.3,6.4,2c1.2,0.4,2.4,1.1,3.4,1.9
		c1.7,1.4,2.7,3.1,3.1,5.2c0.4,2.6,0.7,5.2,0.6,7.9c0,1-0.2,2.1-0.4,3.1c-0.5,2.4-1.7,4.3-3.6,5.8c-1.3,1-2.8,1.8-4.3,2.5
		c-1,0.4-1.9,0.7-2.9,1.2c-1.5,0.8-3,1.5-4.3,2.4c-3.7,2.5-6.3,5.9-7.6,10.1c-0.9,2.9-2.3,5.4-4.1,7.8c-0.7,0.9-1.4,1.8-2.1,2.7
		c-0.3,0.4-0.6,0.7-0.8,1.2c-0.7,1.4-0.5,2.6,0.7,3.6c0.5,0.4,1,0.7,1.6,1c6.8,3.8,13.6,7.7,20.5,11.5c6.1,3.4,12.1,6.8,18.2,10.2
		c0.8,0.5,1.6,0.9,2.4,1.4c1.5,0.9,2.9,2,4.2,3.2c0.6,0.5,1.2,1,1.8,1.5c1.2,0.9,2.6,1.3,4.1,1.2C242,182.8,242.4,182.8,242.9,182.8
		z M148.2,176.6c-0.4,0.5-0.8,0.8-1.1,1.1c-2.6,3-5.1,6-7.7,8.9c-4.1,4.7-8.1,9.4-12.2,14.1c-0.4,0.5-0.7,1-1.4,1.3
		c-0.8-0.9-1.5-1.7-2.2-2.5c-8-9.2-16.1-18.4-24.1-27.6c-0.4-0.5-0.9-1-1.4-1.5c-1.1-1-2.3-1.1-3.6-0.6c-0.3,0.1-0.7,0.3-1,0.5
		c-4.1,2.3-8.1,4.6-12.1,6.9c-2.5,1.5-5,2.9-7.4,4.5c-4.4,2.9-8.1,6.5-11,10.8c-4.1,6.1-6.1,12.9-6.2,20.2c-0.1,5-0.2,9.9-0.2,14.9
		c0,14.6,0,29.1,0,43.7c0,0.6,0,1.2,0.1,1.9c0.3,1.6,1.3,2.6,2.9,2.8c0.7,0.1,1.4,0.1,2.2,0.1c10.3,0,20.6,0,30.9,0
		c0.6,0,1.2,0,1.9-0.1c1.9-0.2,3.1-1.4,3.3-3.4c0.1-0.6,0.1-1.2,0.1-1.9c0-12.6,0-25.3,0-37.9c0-0.7,0-1.5,0-2.2
		c0-0.3,0.1-0.7,0.2-1c1.6-0.5,3.8-0.5,5-0.1c0.4,0.7,0.2,1.5,0.2,2.3c0,13-0.1,25.9-0.2,38.9c0,0.7,0,1.3,0.1,2
		c0.3,2,1.5,3.1,3.5,3.3c0.8,0.1,1.7,0.1,2.5,0.1c11.1,0,22.3,0,33.4,0c0.8,0,1.6,0,2.3-0.1c2-0.3,3.2-1.4,3.5-3.4
		c0.1-0.9,0.2-1.8,0.2-2.6c0-6.1-0.1-12.2-0.1-18.3c0-22.1,0-44.2,0-66.4c0-2.6-0.2-5.2-0.3-7.8
		C148.4,177.4,148.3,177.1,148.2,176.6z M195.4,100.8c0,0-0.1,0-0.1,0c0-4.9,0.1-9.8,0.1-14.8c0-0.4,0-0.8-0.1-1.2
		c-0.3-2.5-1.6-4.3-3.9-5.4c-0.5-0.3-1-0.5-1.6-0.7c-4.7-1.9-9.3-3.8-13.8-6c-0.9-0.4-1.8-0.8-2.8-1c-3.3-0.9-6.5-0.5-9.4,1.3
		c-0.7,0.5-1.4,1-2.1,1.6c-0.7,0.6-1.4,1.2-2.2,1.7c-4.7,2.9-9.5,3.2-14.5,1c-1.6-0.7-3-1.7-4.3-2.8c-0.7-0.5-1.4-1.1-2.1-1.6
		c-2.1-1.3-4.5-1.9-7-1.6c-1.5,0.1-2.8,0.6-4.2,1.2c-1.3,0.6-2.5,1.1-3.8,1.7c-3.8,1.6-7.5,3.2-11.3,4.8c-0.7,0.3-1.4,0.6-2.1,1
		c-1.5,0.8-2.4,2-2.5,3.7c-0.1,1.1-0.2,2.2-0.2,3.3c0,2.9,0.1,5.8-0.3,8.7c-0.2,1.1-0.1,2.2,0.2,3.2c0.5,1.8,1.6,2.9,3.3,3.3
		c1.2,0.3,2.4,0.2,3.6,0.1c1.3-0.1,2.6-0.1,3.9-0.2c0.4,0,0.8,0,1.2,0c1.8,0,3.2-0.7,4.3-2.1c0.5-0.6,0.9-1.4,1.3-2.1
		c0.5-0.9,1-1.8,1.6-2.7c3.7-5,10.3-7.2,16.4-5.4c5.1,1.5,8.7,4.7,10.3,9.9c0.7,2.2,0.8,4.5,0.6,6.9c-1.1,8.9-9.5,15.4-18.5,13.5
		c-3.9-0.8-7.1-2.8-9-6.5c-0.2-0.5-0.5-0.9-0.8-1.3c-1.8-2.8-4.3-4.4-7.6-4.8c-0.7-0.1-1.3-0.1-2-0.1c-1.7,0-3.4,0.4-5.1,0.1
		c-0.2,0-0.3,0-0.5,0c-1.3,0.2-2.2,0.9-2.6,2.2c-0.2,0.6-0.3,1.3-0.3,2c0,3.5,0.3,6.9,0.9,10.4c1.1,6.4,3.3,12.4,6.7,17.9
		c4,6.4,9.2,11.7,15.3,16.1c4.5,3.2,9.3,5.9,14.1,8.4c2.3,1.2,4.8,1.7,7.3,1.6c2.8-0.1,5.3-0.9,7.7-2.3c5.3-3.2,10.6-6.5,15.5-10.3
		c13.5-10.2,19.7-25.9,20.1-39C195.4,109.9,195.4,105.4,195.4,100.8z M154.2,180c0,0.5,0,1,0,1.5c0,30.2,0,60.4,0,90.6
		c0,0.5,0,1,0.1,1.6c0.2,1.4,1,2.4,2.4,2.7c0.7,0.2,1.5,0.2,2.3,0.2c6.4,0,12.7,0,19.1,0c12.4,0,24.8,0,37.1,0c0.7,0,1.5,0,2.2-0.1
		c1.7-0.3,2.5-1.4,2.3-3.1c0-0.6-0.2-1.1-0.3-1.7c-0.6-3.6-1.2-7.1-1.7-10.7c-0.4-2.7-1.5-5-3.6-6.8c-0.9-0.7-1.7-1.5-2.5-2.3
		c-6.3-6.8-9-14.8-7.5-24c0.9-5.8,3.6-10.9,7.7-15.1c1-1,2-1.9,3.1-2.8c1.3-1.1,2.1-2.4,2.4-4.1c0.1-0.5,0.2-1,0.2-1.5
		c1-6.3,2-12.6,3.1-18.9c0.1-0.7,0.3-1.4,0.5-2.1c0.2-0.6,0.6-1,1.3-0.9c0.7,0,1.4,0.1,2.2,0.2c2,0.4,4.1,0.8,6.1,1.2
		c0.2,0,0.4,0.1,0.7,0.1c-0.3-0.4-0.7-0.7-1.1-1c-6.7-4.4-13.6-8.3-20.5-12.4c-0.4-0.2-0.8-0.4-1.3-0.6c-1.3-0.5-2.6-0.3-3.7,0.5
		c-0.5,0.4-1,0.9-1.4,1.4c-7.2,8.2-14.3,16.5-21.5,24.7c-1.4,1.6-2.7,3.1-4.1,4.7c-0.3,0.3-0.5,0.7-1.1,0.7c-0.4-0.5-0.9-1-1.4-1.6
		c-5.8-6.8-11.7-13.6-17.5-20.4c-0.3-0.3-0.5-0.8-1.1-0.9C155.9,179.4,155,179.5,154.2,180z M195.3,61.3
		C195.4,61.3,195.4,61.3,195.3,61.3c0-2.4,0.1-4.9,0-7.3c0-0.9,0-1.8-0.1-2.6c-0.3-2.8-1.3-5.2-3.3-7.2c-1.6-1.6-3.3-3-5.1-4.3
		c-1.8-1.3-3.8-2.3-5.9-3.1c-2.6-0.9-5.3-1.4-8.1-1.3c-2.6,0.1-5.1,0.8-7.5,1.8c-1.1,0.5-2.3,1-3.5,1.4c-6.3,2.2-12.6,2.6-19.1,0.7
		c-1.8-0.6-3.6-1.3-5.3-2.1c-2.7-1.2-5.5-1.9-8.4-1.8c-6.3,0.3-11.7,2.8-16.4,6.9c-2.7,2.4-4.2,5.4-4.9,9c-0.3,1.9-0.3,3.7-0.2,5.6
		c0,0.8,0.1,1.6,0.1,2.3c0,3.5,0,7,0,10.6c0,0.5,0,1,0.2,1.5c0.4,1.4,1.5,2.1,2.9,1.8c0.5-0.1,1-0.3,1.5-0.5c4-1.7,8.1-3.5,12.1-5.2
		c1.3-0.6,2.7-1.1,4.1-1.5c2.7-0.8,5.5-0.9,8.3-0.2c2,0.5,3.9,1.5,5.5,2.7c0.9,0.7,1.7,1.5,2.6,2.2c2.2,1.9,4.7,2.8,7.6,2.5
		c1.7-0.2,3.3-0.8,4.8-1.7c1-0.6,2-1.4,2.9-2.1c1.3-1,2.7-1.9,4.2-2.6c2.5-1.1,5.1-1.6,7.9-1.2c1.7,0.3,3.3,0.8,4.9,1.4
		c4.6,2,9.2,4,13.8,6c0.5,0.2,1.1,0.4,1.6,0.5c1.4,0.3,2.5-0.4,2.8-1.8c0.2-0.7,0.2-1.4,0.2-2.2C195.4,67,195.4,64.2,195.3,61.3z
		 M232,209.5c-12-0.1-22.6,9.1-22.7,22.6c-0.1,12.9,9.8,22.7,22.6,22.8c13.4,0,22.8-10.4,22.8-22.9
		C254.6,219.4,244.4,209.4,232,209.5z M176.9,193.5c0.9-0.9,1.8-1.6,2.5-2.5c6.4-7.3,12.8-14.7,19.1-22c0.3-0.4,0.6-0.7,0.8-1.1
		c0.7-1.2,0.5-2.4-0.6-3.3c-0.5-0.4-1-0.7-1.6-1c-3.8-2.1-7.6-4.3-11.3-6.4c-0.5-0.3-1.1-0.6-1.7-0.8c-1.2-0.5-2.4-0.4-3.6,0.2
		c-0.6,0.3-1.2,0.7-1.7,1.1c-5.7,4.6-11.7,8.7-18.2,12.1c-0.4,0.2-0.8,0.5-1.2,0.8c-1,0.8-1.1,2-0.5,3.1c0.2,0.4,0.5,0.8,0.9,1.1
		c4.7,5.4,9.4,10.9,14.2,16.3C174.9,191.9,175.8,192.7,176.9,193.5z M120.2,156c-0.7,0-1.4,0.2-2.1,0.6c-4.4,2.5-8.8,4.9-13.1,7.4
		c-0.4,0.2-0.7,0.4-1,0.7c-0.9,0.8-1.1,2-0.6,3.1c0.2,0.5,0.6,0.9,0.9,1.3c0.6,0.7,1.2,1.3,1.7,2c5.6,6.5,11.2,12.9,16.8,19.4
		c0.5,0.5,1,1.1,1.5,1.6c1.1,0.9,2.3,0.9,3.4,0c0.5-0.4,0.9-0.9,1.3-1.3c4.6-5.2,9.1-10.5,13.7-15.7c0.4-0.5,0.8-1,1.2-1.4
		c0.3-0.4,0.4-0.8,0.4-1.3c0-1-0.5-1.7-1.3-2.1c-0.5-0.3-1.1-0.6-1.7-0.8c-6.1-3.2-11.8-7.1-17.2-11.4c-0.5-0.4-1.1-0.8-1.6-1.2
		C121.9,156.2,121.1,155.9,120.2,156z M148.7,104.7c0.1-5.4-4.4-10-9.9-10c-5,0-10,4.2-10,10c0,5.3,4.3,10,10.1,9.9
		C145,114.6,148.8,109.5,148.7,104.7z M240.4,201.4c-0.1-0.4-0.1-0.9-0.2-1.4c-0.4-2.5-0.8-5-1.1-7.5c-0.1-0.6-0.2-1.1-0.3-1.7
		c-0.6-1.8-1.9-2.8-3.8-2.8c-2.1,0-4.1,0-6.2,0c-1.9,0-3.2,1.1-3.7,2.9c-0.1,0.5-0.2,1-0.3,1.5c-0.4,2.6-0.8,5.1-1.1,7.7
		c-0.1,0.5-0.2,1-0.2,1.5c0,1.8,1.1,2.8,2.9,2.7c0.5,0,1-0.1,1.5-0.2c2.7-0.5,5.4-0.5,8.2,0c0.5,0.1,1,0.2,1.5,0.2
		c1.7,0.1,2.8-0.9,2.8-2.6C240.4,201.8,240.4,201.7,240.4,201.4z M232.5,276.1C232.5,276.1,232.5,276.1,232.5,276.1
		c1.1,0,2.2,0.1,3.3,0c1.5-0.1,2.5-0.9,2.9-2.4c0.1-0.2,0.1-0.4,0.1-0.6c0.6-3.2,1.2-6.4,1.8-9.6c0.1-0.5,0.1-0.9,0.1-1.4
		c0-1.4-0.9-2.2-2.3-2.2c-0.4,0-0.8,0.1-1.2,0.1c-3.2,0.6-6.5,0.6-9.7,0c-0.4-0.1-0.8-0.1-1.2-0.1c-1.4,0-2.3,0.9-2.4,2.3
		c0,0.4,0,0.7,0.1,1.1c0.3,1.9,0.5,3.8,0.8,5.7c0.2,1.4,0.5,2.8,0.8,4.3c0.2,1,0.8,1.8,1.7,2.3c0.6,0.3,1.2,0.5,1.9,0.5
		C230.3,276.1,231.4,276.1,232.5,276.1z M200.8,121.7c0.4-0.2,0.6-0.2,0.8-0.3c2.1-1.1,4.2-2.2,6.3-3.4c0.6-0.3,1.1-0.7,1.7-1.1
		c1.6-1.3,2.6-2.9,2.9-5c0.3-1.9,0-3.7-0.3-5.6c-0.4-2.4-1.8-3.9-4-4.7c-1.2-0.4-2.4-0.7-3.6-1c-0.2-0.1-0.4-0.1-0.6-0.1
		c-1.7-0.2-2.9,0.8-3.1,2.5c-0.1,0.4-0.1,0.8-0.1,1.2c0,5.3,0,10.6,0,15.8C200.8,120.6,200.8,121.1,200.8,121.7z M101.8,121.6
		c0.3-0.5,0.2-1.1,0.2-1.6c0-5,0-9.9,0-14.9c0-0.6,0-1.2,0-1.9c0.1-1.4-0.9-2.6-2.6-2.7c-2.5,0-4.7,0.6-6.6,2.2
		c-1,0.8-1.7,1.9-2,3.2c-0.4,1.5-0.5,3-0.4,4.5c0.2,3.4,1.6,5.9,4.6,7.6c2.1,1.1,4.2,2.3,6.3,3.4
		C101.4,121.5,101.6,121.6,101.8,121.6z"/>
	<path class="st0" d="M229.1,243.3c2,0.2,3.7,0.6,5.6-0.1c0-0.3,0.1-0.6,0-0.9c0-1.8-0.1-3.6,0-5.4c0.1-3,1.2-5.5,3.6-7.5
		c0.8-0.6,1.5-1.3,2.2-2c0.3-0.3,0.5-0.6,0.7-1c-0.5-0.8-1.1-1.3-1.8-1.9c-0.6-0.5-1.2-1.2-1.9-1.4c-1.9,1.6-3.7,3.2-5.4,4.8
		c-0.8,0.7-1.5,1.5-2.2,2.4c-1,1.3-1.4,2.8-1.1,4.4c0.3,1.5,0.3,3,0.3,4.5C229.1,240.5,229.1,241.8,229.1,243.3z"/>
	<path d="M229.1,243.3c0-1.5,0-2.8,0-4.1c0-1.5,0-3-0.3-4.5c-0.3-1.6,0.1-3.1,1.1-4.4c0.7-0.9,1.4-1.7,2.2-2.4
		c1.7-1.6,3.5-3.2,5.4-4.8c0.7,0.2,1.3,0.9,1.9,1.4c0.6,0.5,1.3,1.1,1.8,1.9c-0.2,0.3-0.4,0.7-0.7,1c-0.7,0.7-1.4,1.4-2.2,2
		c-2.3,1.9-3.5,4.5-3.6,7.5c-0.1,1.8,0,3.6,0,5.4c0,0.3,0,0.6,0,0.9C232.9,243.9,231.1,243.5,229.1,243.3z"/>
</g>
</svg>
